<svg width="46" height="12" viewBox="0 0 46 12" fill="none" xmlns="http://www.w3.org/2000/svg">
<rect x="0.506477" y="1.17542" width="44.9004" height="10.5648" rx="1.5407" fill="#FFE87A"/>
<rect x="0.506477" y="1.17542" width="44.9004" height="10.5648" rx="1.5407" stroke="#FFE87A" stroke-width="0.4402"/>
<path d="M6.80038 4.55232V8.95776H6.24368V5.24745L5.12126 5.65669V5.15416L6.71311 4.55232H6.80038ZM11.1878 6.41802V7.08605C11.1878 7.44515 11.1557 7.74807 11.0915 7.99483C11.0273 8.24158 10.935 8.44018 10.8146 8.59064C10.6943 8.7411 10.5488 8.85044 10.3783 8.91864C10.2098 8.98485 10.0192 9.01795 9.80655 9.01795C9.63804 9.01795 9.48256 8.99688 9.34013 8.95475C9.19769 8.91263 9.0693 8.84542 8.95495 8.75314C8.84261 8.65885 8.74632 8.53648 8.66607 8.38602C8.58583 8.23556 8.52464 8.053 8.48251 7.83835C8.44038 7.62369 8.41932 7.37293 8.41932 7.08605V6.41802C8.41932 6.05892 8.45142 5.758 8.51561 5.51526C8.58181 5.27252 8.6751 5.07793 8.79547 4.93148C8.91583 4.78303 9.06027 4.6767 9.22879 4.61251C9.39931 4.54831 9.58989 4.51621 9.80053 4.51621C9.97105 4.51621 10.1275 4.53728 10.27 4.57941C10.4144 4.61953 10.5428 4.68473 10.6551 4.775C10.7675 4.86327 10.8628 4.98163 10.941 5.13009C11.0213 5.27653 11.0824 5.45608 11.1246 5.66873C11.1667 5.88138 11.1878 6.13114 11.1878 6.41802ZM10.6281 7.17633V6.32473C10.6281 6.12813 10.616 5.95561 10.5919 5.80715C10.5699 5.65669 10.5368 5.5283 10.4926 5.42198C10.4485 5.31565 10.3923 5.22939 10.3241 5.16319C10.2579 5.09699 10.1807 5.04884 10.0924 5.01875C10.0062 4.98665 9.90886 4.9706 9.80053 4.9706C9.66813 4.9706 9.55077 4.99568 9.44846 5.04583C9.34615 5.09398 9.25988 5.17121 9.18967 5.27754C9.12146 5.38386 9.0693 5.52329 9.03319 5.69581C8.99708 5.86834 8.97903 6.07798 8.97903 6.32473V7.17633C8.97903 7.37293 8.99006 7.54646 9.01213 7.69692C9.0362 7.84738 9.07131 7.97777 9.11745 8.08811C9.16359 8.19644 9.21976 8.28571 9.28596 8.35593C9.35216 8.42614 9.4284 8.4783 9.51466 8.51241C9.60293 8.5445 9.70023 8.56055 9.80655 8.56055C9.94297 8.56055 10.0623 8.53447 10.1646 8.48231C10.267 8.43015 10.3522 8.34891 10.4204 8.23857C10.4906 8.12623 10.5428 7.98279 10.5769 7.80826C10.611 7.63172 10.6281 7.42108 10.6281 7.17633ZM11.8558 5.65068V5.41897C11.8558 5.25246 11.8919 5.101 11.9641 4.96458C12.0364 4.82817 12.1397 4.71883 12.2741 4.63658C12.4085 4.55433 12.568 4.51321 12.7525 4.51321C12.9411 4.51321 13.1016 4.55433 13.234 4.63658C13.3684 4.71883 13.4717 4.82817 13.544 4.96458C13.6162 5.101 13.6523 5.25246 13.6523 5.41897V5.65068C13.6523 5.81317 13.6162 5.96263 13.544 6.09904C13.4737 6.23546 13.3714 6.34479 13.237 6.42704C13.1046 6.50929 12.9451 6.55042 12.7586 6.55042C12.572 6.55042 12.4105 6.50929 12.2741 6.42704C12.1397 6.34479 12.0364 6.23546 11.9641 6.09904C11.8919 5.96263 11.8558 5.81317 11.8558 5.65068ZM12.2741 5.41897V5.65068C12.2741 5.74296 12.2911 5.83022 12.3252 5.91247C12.3613 5.99472 12.4155 6.06193 12.4877 6.11409C12.5599 6.16424 12.6502 6.18932 12.7586 6.18932C12.8669 6.18932 12.9562 6.16424 13.0264 6.11409C13.0966 6.06193 13.1487 5.99472 13.1828 5.91247C13.217 5.83022 13.234 5.74296 13.234 5.65068V5.41897C13.234 5.32468 13.216 5.23641 13.1798 5.15416C13.1457 5.0699 13.0926 5.0027 13.0204 4.95255C12.9501 4.90039 12.8609 4.87431 12.7525 4.87431C12.6462 4.87431 12.5569 4.90039 12.4847 4.95255C12.4145 5.0027 12.3613 5.0699 12.3252 5.15416C12.2911 5.23641 12.2741 5.32468 12.2741 5.41897ZM13.9893 8.1182V7.88349C13.9893 7.71898 14.0254 7.56853 14.0976 7.43211C14.1699 7.29569 14.2732 7.18636 14.4076 7.10411C14.542 7.02186 14.7015 6.98073 14.886 6.98073C15.0746 6.98073 15.2351 7.02186 15.3675 7.10411C15.5019 7.18636 15.6052 7.29569 15.6775 7.43211C15.7497 7.56853 15.7858 7.71898 15.7858 7.88349V8.1182C15.7858 8.2827 15.7497 8.43316 15.6775 8.56958C15.6072 8.706 15.5049 8.81533 15.3705 8.89758C15.2381 8.97983 15.0786 9.02096 14.8921 9.02096C14.7055 9.02096 14.545 8.97983 14.4106 8.89758C14.2762 8.81533 14.1719 8.706 14.0976 8.56958C14.0254 8.43316 13.9893 8.2827 13.9893 8.1182ZM14.4076 7.88349V8.1182C14.4076 8.21048 14.4246 8.29875 14.4587 8.38301C14.4949 8.46526 14.549 8.53247 14.6212 8.58463C14.6935 8.63478 14.7837 8.65985 14.8921 8.65985C15.0004 8.65985 15.0897 8.63478 15.1599 8.58463C15.2321 8.53247 15.2853 8.46526 15.3194 8.38301C15.3535 8.30076 15.3705 8.21249 15.3705 8.1182V7.88349C15.3705 7.7892 15.3525 7.70093 15.3164 7.61868C15.2823 7.53643 15.2291 7.47023 15.1569 7.42007C15.0867 7.36791 14.9964 7.34183 14.886 7.34183C14.7797 7.34183 14.6904 7.36791 14.6182 7.42007C14.548 7.47023 14.4949 7.53643 14.4587 7.61868C14.4246 7.70093 14.4076 7.7892 14.4076 7.88349ZM15.0245 5.1993L12.8849 8.62374L12.572 8.42514L14.7115 5.00069L15.0245 5.1993ZM20.0588 8.32584V4.33566H20.6185V8.95776H20.107L20.0588 8.32584ZM17.8681 7.36591V7.30271C17.8681 7.05396 17.8982 6.82827 17.9584 6.62565C18.0206 6.42103 18.1079 6.24549 18.2202 6.09904C18.3346 5.9526 18.47 5.84025 18.6265 5.76201C18.7849 5.68177 18.9615 5.64165 19.1561 5.64165C19.3607 5.64165 19.5392 5.67776 19.6917 5.74998C19.8462 5.82019 19.9766 5.92351 20.0829 6.05992C20.1912 6.19433 20.2765 6.35683 20.3387 6.54741C20.4009 6.73799 20.444 6.95365 20.4681 7.19438V7.47123C20.446 7.70996 20.4029 7.92461 20.3387 8.11519C20.2765 8.30577 20.1912 8.46827 20.0829 8.60268C19.9766 8.73709 19.8462 8.84041 19.6917 8.91263C19.5372 8.98284 19.3567 9.01795 19.1501 9.01795C18.9595 9.01795 18.7849 8.97682 18.6265 8.89457C18.47 8.81232 18.3346 8.69697 18.2202 8.54852C18.1079 8.40006 18.0206 8.22553 17.9584 8.02492C17.8982 7.8223 17.8681 7.60263 17.8681 7.36591ZM18.4279 7.30271V7.36591C18.4279 7.5284 18.4439 7.68087 18.476 7.8233C18.5101 7.96574 18.5623 8.09112 18.6325 8.19945C18.7027 8.30778 18.792 8.39304 18.9003 8.45523C19.0086 8.51541 19.138 8.54551 19.2885 8.54551C19.473 8.54551 19.6245 8.50639 19.7429 8.42815C19.8632 8.34991 19.9595 8.24659 20.0317 8.1182C20.104 7.98981 20.1601 7.85039 20.2003 7.69993V6.97471C20.1762 6.86438 20.1411 6.75805 20.0949 6.65574C20.0508 6.55142 19.9926 6.45914 19.9204 6.3789C19.8502 6.29665 19.7629 6.23145 19.6586 6.1833C19.5563 6.13515 19.4349 6.11108 19.2945 6.11108C19.142 6.11108 19.0106 6.14318 18.9003 6.20737C18.792 6.26956 18.7027 6.35583 18.6325 6.46616C18.5623 6.57449 18.5101 6.70088 18.476 6.84532C18.4439 6.98775 18.4279 7.14022 18.4279 7.30271ZM22.09 5.70183V8.95776H21.5303V5.70183H22.09ZM21.4882 4.8382C21.4882 4.74792 21.5153 4.67169 21.5694 4.6095C21.6256 4.54731 21.7079 4.51621 21.8162 4.51621C21.9225 4.51621 22.0038 4.54731 22.0599 4.6095C22.1181 4.67169 22.1472 4.74792 22.1472 4.8382C22.1472 4.92446 22.1181 4.99869 22.0599 5.06088C22.0038 5.12106 21.9225 5.15115 21.8162 5.15115C21.7079 5.15115 21.6256 5.12106 21.5694 5.06088C21.5153 4.99869 21.4882 4.92446 21.4882 4.8382ZM24.8795 8.09413C24.8795 8.01388 24.8615 7.93966 24.8254 7.87145C24.7913 7.80124 24.72 7.73804 24.6117 7.68187C24.5054 7.62369 24.3449 7.57354 24.1302 7.53141C23.9497 7.4933 23.7862 7.44816 23.6397 7.396C23.4953 7.34384 23.3719 7.28065 23.2696 7.20642C23.1693 7.13219 23.0921 7.04493 23.0379 6.94462C22.9837 6.84432 22.9567 6.72696 22.9567 6.59255C22.9567 6.46416 22.9848 6.34279 23.0409 6.22844C23.0991 6.11409 23.1803 6.01278 23.2847 5.92451C23.391 5.83624 23.5184 5.76703 23.6668 5.71688C23.8153 5.66672 23.9808 5.64165 24.1633 5.64165C24.4241 5.64165 24.6468 5.68779 24.8314 5.78007C25.0159 5.87235 25.1574 5.99573 25.2557 6.1502C25.354 6.30266 25.4031 6.47218 25.4031 6.65875H24.8464C24.8464 6.56848 24.8193 6.48121 24.7652 6.39695C24.713 6.31069 24.6358 6.23947 24.5335 6.1833C24.4332 6.12713 24.3098 6.09904 24.1633 6.09904C24.0089 6.09904 23.8835 6.12312 23.7872 6.17126C23.6929 6.2174 23.6237 6.27658 23.5796 6.3488C23.5374 6.42103 23.5164 6.49726 23.5164 6.5775C23.5164 6.63769 23.5264 6.69185 23.5465 6.74C23.5685 6.78614 23.6066 6.82927 23.6608 6.86939C23.715 6.90751 23.7912 6.94362 23.8895 6.97772C23.9878 7.01183 24.1132 7.04593 24.2657 7.08004C24.5325 7.14022 24.7521 7.21244 24.9247 7.2967C25.0972 7.38095 25.2256 7.48427 25.3098 7.60664C25.3941 7.72902 25.4362 7.87747 25.4362 8.052C25.4362 8.19444 25.4061 8.32483 25.346 8.44319C25.2878 8.56156 25.2025 8.66387 25.0902 8.75013C24.9798 8.83439 24.8474 8.90059 24.693 8.94874C24.5405 8.99488 24.369 9.01795 24.1784 9.01795C23.8915 9.01795 23.6488 8.96679 23.4502 8.86448C23.2516 8.76217 23.1011 8.62976 22.9988 8.46727C22.8965 8.30477 22.8453 8.13325 22.8453 7.9527H23.405C23.4131 8.10516 23.4572 8.22653 23.5374 8.31681C23.6177 8.40508 23.716 8.46827 23.8323 8.50639C23.9487 8.5425 24.064 8.56055 24.1784 8.56055C24.3309 8.56055 24.4582 8.54049 24.5606 8.50037C24.6649 8.46025 24.7441 8.40508 24.7983 8.33486C24.8524 8.26465 24.8795 8.1844 24.8795 8.09413ZM27.4704 8.56055C27.6028 8.56055 27.7252 8.53347 27.8376 8.4793C27.9499 8.42514 28.0422 8.35091 28.1144 8.25662C28.1866 8.16033 28.2277 8.051 28.2378 7.92862H28.7674C28.7574 8.12121 28.6922 8.30076 28.5718 8.46727C28.4534 8.63177 28.298 8.76518 28.1054 8.86749C27.9128 8.96779 27.7011 9.01795 27.4704 9.01795C27.2257 9.01795 27.012 8.97482 26.8295 8.88855C26.6489 8.80229 26.4985 8.68393 26.3781 8.53347C26.2597 8.38301 26.1705 8.21048 26.1103 8.01589C26.0521 7.81929 26.023 7.61166 26.023 7.39299V7.2666C26.023 7.04794 26.0521 6.84131 26.1103 6.64671C26.1705 6.45011 26.2597 6.27658 26.3781 6.12613C26.4985 5.97567 26.6489 5.85731 26.8295 5.77104C27.012 5.68478 27.2257 5.64165 27.4704 5.64165C27.7252 5.64165 27.9479 5.69381 28.1385 5.79813C28.3291 5.90044 28.4785 6.04087 28.5868 6.21941C28.6972 6.39595 28.7574 6.59656 28.7674 6.82125H28.2378C28.2277 6.68684 28.1896 6.56547 28.1234 6.45714C28.0592 6.3488 27.971 6.26254 27.8586 6.19835C27.7483 6.13214 27.6189 6.09904 27.4704 6.09904C27.2999 6.09904 27.1565 6.13315 27.0401 6.20136C26.9258 6.26756 26.8345 6.35783 26.7663 6.47218C26.7001 6.58452 26.6519 6.70991 26.6218 6.84833C26.5938 6.98474 26.5797 7.12417 26.5797 7.2666V7.39299C26.5797 7.53542 26.5938 7.67585 26.6218 7.81428C26.6499 7.9527 26.6971 8.07808 26.7633 8.19042C26.8315 8.30277 26.9228 8.39304 27.0371 8.46125C27.1535 8.52745 27.2979 8.56055 27.4704 8.56055ZM29.2459 7.36591V7.2967C29.2459 7.06198 29.28 6.84432 29.3482 6.6437C29.4164 6.44109 29.5147 6.26555 29.6431 6.1171C29.7715 5.96664 29.9269 5.85028 30.1095 5.76803C30.292 5.68378 30.4967 5.64165 30.7234 5.64165C30.9521 5.64165 31.1577 5.68378 31.3402 5.76803C31.5248 5.85028 31.6813 5.96664 31.8097 6.1171C31.9401 6.26555 32.0394 6.44109 32.1076 6.6437C32.1758 6.84432 32.2099 7.06198 32.2099 7.2967V7.36591C32.2099 7.60062 32.1758 7.81829 32.1076 8.0189C32.0394 8.21951 31.9401 8.39505 31.8097 8.54551C31.6813 8.69396 31.5258 8.81031 31.3432 8.89457C31.1627 8.97682 30.9581 9.01795 30.7294 9.01795C30.5007 9.01795 30.2951 8.97682 30.1125 8.89457C29.9299 8.81031 29.7735 8.69396 29.6431 8.54551C29.5147 8.39505 29.4164 8.21951 29.3482 8.0189C29.28 7.81829 29.2459 7.60062 29.2459 7.36591ZM29.8025 7.2967V7.36591C29.8025 7.5284 29.8216 7.68187 29.8597 7.82631C29.8978 7.96875 29.955 8.09513 30.0312 8.20547C30.1095 8.31581 30.2068 8.40307 30.3231 8.46727C30.4395 8.52946 30.5749 8.56055 30.7294 8.56055C30.8818 8.56055 31.0152 8.52946 31.1296 8.46727C31.246 8.40307 31.3422 8.31581 31.4185 8.20547C31.4947 8.09513 31.5519 7.96875 31.59 7.82631C31.6301 7.68187 31.6502 7.5284 31.6502 7.36591V7.2967C31.6502 7.13621 31.6301 6.98474 31.59 6.84231C31.5519 6.69787 31.4937 6.57048 31.4155 6.46014C31.3392 6.3478 31.2429 6.25953 31.1266 6.19534C31.0122 6.13114 30.8778 6.09904 30.7234 6.09904C30.5709 6.09904 30.4365 6.13114 30.3201 6.19534C30.2058 6.25953 30.1095 6.3478 30.0312 6.46014C29.955 6.57048 29.8978 6.69787 29.8597 6.84231C29.8216 6.98474 29.8025 7.13621 29.8025 7.2967ZM34.9001 8.20547V5.70183H35.4598V8.95776H34.9272L34.9001 8.20547ZM35.0054 7.51938L35.2371 7.51336C35.2371 7.73002 35.2141 7.93063 35.1679 8.11519C35.1238 8.29775 35.0516 8.45623 34.9513 8.59064C34.8509 8.72505 34.7195 8.83038 34.5571 8.90661C34.3946 8.98083 34.197 9.01795 33.9642 9.01795C33.8058 9.01795 33.6603 8.99488 33.5279 8.94874C33.3975 8.9026 33.2852 8.83138 33.1909 8.73508C33.0966 8.63879 33.0234 8.51341 32.9712 8.35894C32.9211 8.20447 32.896 8.0189 32.896 7.80224V5.70183H33.4527V7.80826C33.4527 7.9547 33.4687 8.07607 33.5008 8.17237C33.5349 8.26666 33.5801 8.34188 33.6362 8.39806C33.6944 8.45222 33.7586 8.49034 33.8288 8.51241C33.9011 8.53447 33.9753 8.54551 34.0515 8.54551C34.2882 8.54551 34.4758 8.50037 34.6142 8.41009C34.7526 8.31781 34.852 8.19444 34.9121 8.03996C34.9743 7.88349 35.0054 7.70996 35.0054 7.51938ZM36.8651 6.39695V8.95776H36.3084V5.70183H36.835L36.8651 6.39695ZM36.7327 7.20642L36.501 7.19739C36.503 6.97471 36.5361 6.76909 36.6003 6.58051C36.6645 6.38993 36.7548 6.22443 36.8711 6.084C36.9875 5.94357 37.1259 5.83524 37.2864 5.75901C37.4489 5.68077 37.6284 5.64165 37.825 5.64165C37.9855 5.64165 38.13 5.66372 38.2583 5.70785C38.3867 5.74998 38.4961 5.81819 38.5863 5.91247C38.6786 6.00676 38.7488 6.12913 38.797 6.27959C38.8451 6.42805 38.8692 6.6096 38.8692 6.82426V8.95776H38.3095V6.81824C38.3095 6.64772 38.2844 6.5113 38.2343 6.40899C38.1841 6.30467 38.1109 6.22944 38.0146 6.1833C37.9183 6.13515 37.7999 6.11108 37.6595 6.11108C37.5211 6.11108 37.3947 6.14017 37.2804 6.19835C37.168 6.25652 37.0707 6.33677 36.9885 6.43908C36.9082 6.54139 36.845 6.65875 36.7989 6.79115C36.7548 6.92155 36.7327 7.05997 36.7327 7.20642ZM41.0779 5.70183V6.12913H39.3176V5.70183H41.0779ZM39.9134 4.91042H40.4701V8.1513C40.4701 8.26164 40.4871 8.34489 40.5212 8.40107C40.5553 8.45724 40.5995 8.49435 40.6536 8.51241C40.7078 8.53046 40.766 8.53949 40.8282 8.53949C40.8743 8.53949 40.9225 8.53548 40.9726 8.52745C41.0248 8.51742 41.0639 8.5094 41.09 8.50338L41.093 8.95776C41.0489 8.97181 40.9907 8.98485 40.9185 8.99688C40.8482 9.01093 40.763 9.01795 40.6627 9.01795C40.5263 9.01795 40.4009 8.99086 40.2865 8.9367C40.1722 8.88253 40.0809 8.79226 40.0127 8.66587C39.9465 8.53748 39.9134 8.36496 39.9134 8.14829V4.91042Z" fill="black"/>
</svg>
